<svg width="24" height="24" viewBox="0 0 24 24" fill="none" xmlns="http://www.w3.org/2000/svg">
<path fill-rule="evenodd" clip-rule="evenodd" d="M3 11.9995C3 10.8176 3.23279 9.64736 3.68508 8.55548C4.13738 7.46361 4.80031 6.4715 5.63604 5.63581C6.47177 4.80013 7.46392 4.13722 8.55585 3.68495C9.64778 3.23268 10.8181 2.9999 12 2.9999C13.1819 2.9999 14.3522 3.23268 15.4442 3.68495C16.5361 4.13722 17.5282 4.80013 18.364 5.63581C19.1997 6.4715 19.8626 7.46361 20.3149 8.55548C20.7672 9.64736 21 10.8176 21 11.9995C21 14.3863 20.0518 16.6754 18.364 18.3631C16.6761 20.0509 14.3869 20.999 12 20.999C9.61305 20.999 7.32387 20.0509 5.63604 18.3631C3.94821 16.6754 3 14.3863 3 11.9995ZM12 1C5.925 1 1 5.92476 1 11.9995C1 18.0742 5.925 22.9989 12 22.9989C18.075 22.9989 23 18.0742 23 11.9995C23 5.92476 18.075 1 12 1ZM16.8 8.59963C16.8788 8.49458 16.9361 8.37504 16.9687 8.24783C17.0013 8.12062 17.0085 7.98824 16.99 7.85825C16.9714 7.72825 16.9274 7.60319 16.8605 7.49019C16.7936 7.3772 16.7051 7.27849 16.6 7.1997C16.4949 7.12091 16.3754 7.06358 16.2482 7.03099C16.121 6.9984 15.9886 6.99119 15.8586 7.00976C15.7286 7.02833 15.6035 7.07232 15.4905 7.13923C15.3775 7.20613 15.2788 7.29464 15.2 7.39969L9.892 14.4773L7.707 12.2925C7.5184 12.1103 7.2658 12.0095 7.0036 12.0118C6.7414 12.0141 6.49059 12.1192 6.30518 12.3046C6.11977 12.49 6.0146 12.7408 6.01233 13.003C6.01005 13.2652 6.11084 13.5178 6.293 13.7064L9.293 16.7062C9.3943 16.8075 9.51618 16.8859 9.6504 16.936C9.78461 16.9861 9.92802 17.0067 10.0709 16.9966C10.2138 16.9864 10.3529 16.9457 10.4787 16.8772C10.6044 16.8086 10.714 16.7138 10.8 16.5992L16.8 8.59963Z" fill="black"/>
</svg>
