<svg xmlns="http://www.w3.org/2000/svg" width="252" height="247" fill="none" viewBox="0 0 252 247"><path stroke="#fff" stroke-linecap="square" stroke-linejoin="round" stroke-width="4" d="M42.4444 42.5V164M42.4444 42.5H103.111C113.838 42.5 124.125 46.7669 131.71 54.3622C139.294 61.9574 143.556 72.2587 143.556 83C143.556 93.7413 139.294 104.043 131.71 111.638C124.125 119.233 113.838 123.5 103.111 123.5H42.4444V42.5ZM42.4444 164C31.7179 164 21.4307 168.267 13.8459 175.862C6.26109 183.457 2 193.759 2 204.5M42.4444 164H123.333C139.423 164 154.854 155.466 166.231 140.276C177.608 125.085 184 104.483 184 83C184 61.5175 177.608 40.9148 166.231 25.7244C154.854 10.5339 139.423 2 123.333 2H2V204.5M2 204.5C2 215.241 6.26109 225.543 13.8459 233.138C21.4307 240.733 31.7179 245 42.4444 245V184.25"/><path fill="#fff" d="M79.1596 227.648C79.1596 228.992 78.8356 230.252 78.1876 231.428C77.5636 232.604 76.5676 233.552 75.1996 234.272C73.8556 234.992 72.1516 235.352 70.0876 235.352H65.8756V245H60.8356V219.872H70.0876C72.0316 219.872 73.6876 220.208 75.0556 220.88C76.4236 221.552 77.4436 222.476 78.1156 223.652C78.8116 224.828 79.1596 226.16 79.1596 227.648ZM69.8716 231.284C71.2636 231.284 72.2956 230.972 72.9676 230.348C73.6396 229.7 73.9756 228.8 73.9756 227.648C73.9756 225.2 72.6076 223.976 69.8716 223.976H65.8756V231.284H69.8716ZM87.4779 228.152C88.1259 227.096 88.9659 226.268 89.9979 225.668C91.0539 225.068 92.2539 224.768 93.5979 224.768V230.06H92.2659C90.6819 230.06 89.4819 230.432 88.6659 231.176C87.8739 231.92 87.4779 233.216 87.4779 235.064V245H82.4379V225.056H87.4779V228.152ZM99.2486 222.68C98.3606 222.68 97.6166 222.404 97.0166 221.852C96.4406 221.276 96.1526 220.568 96.1526 219.728C96.1526 218.888 96.4406 218.192 97.0166 217.64C97.6166 217.064 98.3606 216.776 99.2486 216.776C100.137 216.776 100.869 217.064 101.445 217.64C102.045 218.192 102.345 218.888 102.345 219.728C102.345 220.568 102.045 221.276 101.445 221.852C100.869 222.404 100.137 222.68 99.2486 222.68ZM101.733 225.056V245H96.6926V225.056H101.733ZM105.116 234.956C105.116 232.94 105.512 231.152 106.304 229.592C107.12 228.032 108.224 226.832 109.616 225.992C111.008 225.152 112.556 224.732 114.26 224.732C115.556 224.732 116.792 225.02 117.968 225.596C119.144 226.148 120.08 226.892 120.776 227.828V218.36H125.888V245H120.776V242.048C120.152 243.032 119.276 243.824 118.148 244.424C117.02 245.024 115.712 245.324 114.224 245.324C112.544 245.324 111.008 244.892 109.616 244.028C108.224 243.164 107.12 241.952 106.304 240.392C105.512 238.808 105.116 236.996 105.116 234.956ZM120.812 235.028C120.812 233.804 120.572 232.76 120.092 231.896C119.612 231.008 118.964 230.336 118.148 229.88C117.332 229.4 116.456 229.16 115.52 229.16C114.584 229.16 113.72 229.388 112.928 229.844C112.136 230.3 111.488 230.972 110.984 231.86C110.504 232.724 110.264 233.756 110.264 234.956C110.264 236.156 110.504 237.212 110.984 238.124C111.488 239.012 112.136 239.696 112.928 240.176C113.744 240.656 114.608 240.896 115.52 240.896C116.456 240.896 117.332 240.668 118.148 240.212C118.964 239.732 119.612 239.06 120.092 238.196C120.572 237.308 120.812 236.252 120.812 235.028ZM149.051 234.596C149.051 235.316 149.003 235.964 148.907 236.54H134.327C134.447 237.98 134.951 239.108 135.839 239.924C136.727 240.74 137.819 241.148 139.115 241.148C140.987 241.148 142.319 240.344 143.111 238.736H148.547C147.971 240.656 146.867 242.24 145.235 243.488C143.603 244.712 141.599 245.324 139.223 245.324C137.303 245.324 135.575 244.904 134.039 244.064C132.527 243.2 131.339 241.988 130.475 240.428C129.635 238.868 129.215 237.068 129.215 235.028C129.215 232.964 129.635 231.152 130.475 229.592C131.315 228.032 132.491 226.832 134.003 225.992C135.515 225.152 137.255 224.732 139.223 224.732C141.119 224.732 142.811 225.14 144.299 225.956C145.811 226.772 146.975 227.936 147.791 229.448C148.631 230.936 149.051 232.652 149.051 234.596ZM143.831 233.156C143.807 231.86 143.339 230.828 142.427 230.06C141.515 229.268 140.399 228.872 139.079 228.872C137.831 228.872 136.775 229.256 135.911 230.024C135.071 230.768 134.555 231.812 134.363 233.156H143.831ZM169.383 245.252C167.631 245.252 166.047 244.952 164.631 244.352C163.239 243.752 162.135 242.888 161.319 241.76C160.503 240.632 160.083 239.3 160.059 237.764H165.459C165.531 238.796 165.891 239.612 166.539 240.212C167.211 240.812 168.123 241.112 169.275 241.112C170.451 241.112 171.375 240.836 172.047 240.284C172.719 239.708 173.055 238.964 173.055 238.052C173.055 237.308 172.827 236.696 172.371 236.216C171.915 235.736 171.339 235.364 170.643 235.1C169.971 234.812 169.035 234.5 167.835 234.164C166.203 233.684 164.871 233.216 163.839 232.76C162.831 232.28 161.955 231.572 161.211 230.636C160.491 229.676 160.131 228.404 160.131 226.82C160.131 225.332 160.503 224.036 161.247 222.932C161.991 221.828 163.035 220.988 164.379 220.412C165.723 219.812 167.259 219.512 168.987 219.512C171.579 219.512 173.679 220.148 175.287 221.42C176.919 222.668 177.819 224.42 177.987 226.676H172.443C172.395 225.812 172.023 225.104 171.327 224.552C170.655 223.976 169.755 223.688 168.627 223.688C167.643 223.688 166.851 223.94 166.251 224.444C165.675 224.948 165.387 225.68 165.387 226.64C165.387 227.312 165.603 227.876 166.035 228.332C166.491 228.764 167.043 229.124 167.691 229.412C168.363 229.676 169.299 229.988 170.499 230.348C172.131 230.828 173.463 231.308 174.495 231.788C175.527 232.268 176.415 232.988 177.159 233.948C177.903 234.908 178.275 236.168 178.275 237.728C178.275 239.072 177.927 240.32 177.231 241.472C176.535 242.624 175.515 243.548 174.171 244.244C172.827 244.916 171.231 245.252 169.383 245.252ZM188.213 229.196V238.844C188.213 239.516 188.369 240.008 188.681 240.32C189.017 240.608 189.569 240.752 190.337 240.752H192.677V245H189.509C185.261 245 183.137 242.936 183.137 238.808V229.196H180.761V225.056H183.137V220.124H188.213V225.056H192.677V229.196H188.213ZM204.858 245.324C202.938 245.324 201.21 244.904 199.674 244.064C198.138 243.2 196.926 241.988 196.038 240.428C195.174 238.868 194.742 237.068 194.742 235.028C194.742 232.988 195.186 231.188 196.074 229.628C196.986 228.068 198.222 226.868 199.782 226.028C201.342 225.164 203.082 224.732 205.002 224.732C206.922 224.732 208.662 225.164 210.222 226.028C211.782 226.868 213.006 228.068 213.894 229.628C214.806 231.188 215.262 232.988 215.262 235.028C215.262 237.068 214.794 238.868 213.858 240.428C212.946 241.988 211.698 243.2 210.114 244.064C208.554 244.904 206.802 245.324 204.858 245.324ZM204.858 240.932C205.77 240.932 206.622 240.716 207.414 240.284C208.23 239.828 208.878 239.156 209.358 238.268C209.838 237.38 210.078 236.3 210.078 235.028C210.078 233.132 209.574 231.68 208.566 230.672C207.582 229.64 206.37 229.124 204.93 229.124C203.49 229.124 202.278 229.64 201.294 230.672C200.334 231.68 199.854 233.132 199.854 235.028C199.854 236.924 200.322 238.388 201.258 239.42C202.218 240.428 203.418 240.932 204.858 240.932ZM223.699 228.152C224.347 227.096 225.187 226.268 226.219 225.668C227.275 225.068 228.475 224.768 229.819 224.768V230.06H228.487C226.903 230.06 225.703 230.432 224.887 231.176C224.095 231.92 223.699 233.216 223.699 235.064V245H218.659V225.056H223.699V228.152ZM251.454 234.596C251.454 235.316 251.406 235.964 251.31 236.54H236.73C236.85 237.98 237.354 239.108 238.242 239.924C239.13 240.74 240.222 241.148 241.518 241.148C243.39 241.148 244.722 240.344 245.514 238.736H250.95C250.374 240.656 249.27 242.24 247.638 243.488C246.006 244.712 244.002 245.324 241.626 245.324C239.706 245.324 237.978 244.904 236.442 244.064C234.93 243.2 233.742 241.988 232.878 240.428C232.038 238.868 231.618 237.068 231.618 235.028C231.618 232.964 232.038 231.152 232.878 229.592C233.718 228.032 234.894 226.832 236.406 225.992C237.918 225.152 239.658 224.732 241.626 224.732C243.522 224.732 245.214 225.14 246.702 225.956C248.214 226.772 249.378 227.936 250.194 229.448C251.034 230.936 251.454 232.652 251.454 234.596ZM246.234 233.156C246.21 231.86 245.742 230.828 244.83 230.06C243.918 229.268 242.802 228.872 241.482 228.872C240.234 228.872 239.178 229.256 238.314 230.024C237.474 230.768 236.958 231.812 236.766 233.156H246.234Z"/></svg>