<svg width="30" height="30" viewBox="0 0 30 30" fill="none" xmlns="http://www.w3.org/2000/svg">
<path d="M22.3448 18.0827C20.2884 18.0827 18.6155 19.7556 18.6155 21.812C18.6155 23.8684 20.2884 25.5413 22.3448 25.5413C24.4015 25.5413 26.0741 23.8684 26.0741 21.812C26.0741 19.7556 24.4012 18.0827 22.3448 18.0827ZM22.3448 23.6767C21.3165 23.6767 20.4801 22.8403 20.4801 21.812C20.4801 20.7837 21.3165 19.9473 22.3448 19.9473C23.3731 19.9473 24.2095 20.7837 24.2095 21.812C24.2095 22.8404 23.3731 23.6767 22.3448 23.6767Z" fill="black"/>
<path d="M9.60298 18.0827C7.54659 18.0827 5.87366 19.7556 5.87366 21.812C5.87366 23.8684 7.54659 25.5413 9.60298 25.5413C11.6594 25.5413 13.3323 23.8684 13.3323 21.812C13.3323 19.7556 11.6594 18.0827 9.60298 18.0827ZM9.60298 23.6767C8.57464 23.6767 7.73832 22.8403 7.73832 21.812C7.73832 20.7837 8.57464 19.9473 9.60298 19.9473C10.631 19.9473 11.4676 20.7837 11.4676 21.812C11.4676 22.8404 10.6313 23.6767 9.60298 23.6767Z" fill="black"/>
<path d="M24.8561 7.40818C24.6976 7.09337 24.3754 6.89476 24.0229 6.89476H19.1127V8.75942H23.448L25.9867 13.8089L27.6531 12.971L24.8561 7.40818Z" fill="black"/>
<path d="M19.5479 20.9108H12.4933V22.7755H19.5479V20.9108Z" fill="black"/>
<path d="M6.80593 20.9108H3.5739C3.05892 20.9108 2.6416 21.3282 2.6416 21.8431C2.6416 22.3581 3.05898 22.7754 3.5739 22.7754H6.80599C7.32097 22.7754 7.73829 22.358 7.73829 21.8431C7.73829 21.3281 7.32091 20.9108 6.80593 20.9108Z" fill="black"/>
<path d="M29.3901 15.2111L27.5562 12.8492C27.38 12.6217 27.1081 12.4887 26.82 12.4887H20.045V5.96241C20.045 5.44743 19.6276 5.03011 19.1127 5.03011H3.5739C3.05892 5.03011 2.6416 5.44749 2.6416 5.96241C2.6416 6.47733 3.05898 6.89471 3.5739 6.89471H18.1804V13.421C18.1804 13.936 18.5977 14.3533 19.1127 14.3533H26.3634L27.7212 16.1023V20.9107H25.1417C24.6267 20.9107 24.2094 21.328 24.2094 21.843C24.2094 22.358 24.6268 22.7753 25.1417 22.7753H28.6535C29.1685 22.7753 29.5858 22.3579 29.5858 21.843V15.783C29.5858 15.576 29.5168 15.3746 29.3901 15.2111Z" fill="black"/>
<path d="M6.74387 16.187H2.45513C1.94015 16.187 1.52283 16.6044 1.52283 17.1193C1.52283 17.6343 1.94021 18.0516 2.45513 18.0516H6.74381C7.25879 18.0516 7.67611 17.6342 7.67611 17.1193C7.67611 16.6044 7.25879 16.187 6.74387 16.187Z" fill="black"/>
<path d="M8.88819 12.5198H0.932302C0.41738 12.5198 0 12.9372 0 13.4521C0 13.9671 0.41738 14.3844 0.932302 14.3844H8.88819C9.40317 14.3844 9.82049 13.9671 9.82049 13.4521C9.82049 12.9372 9.40317 12.5198 8.88819 12.5198Z" fill="black"/>
<path d="M10.411 8.85263H2.45513C1.94015 8.85263 1.52283 9.27001 1.52283 9.78493C1.52283 10.2999 1.94021 10.7172 2.45513 10.7172H10.411C10.926 10.7172 11.3433 10.2999 11.3433 9.78493C11.3433 9.27001 10.926 8.85263 10.411 8.85263Z" fill="black"/>
</svg>
