<svg xmlns="http://www.w3.org/2000/svg" width="186" height="247" fill="none" viewBox="0 0 186 247"><path stroke="#fff" stroke-linecap="square" stroke-linejoin="round" stroke-width="4" d="M42.4444 42.5V164M42.4444 42.5H103.111C113.838 42.5 124.125 46.7669 131.71 54.3622C139.294 61.9574 143.556 72.2587 143.556 83C143.556 93.7413 139.294 104.043 131.71 111.638C124.125 119.233 113.838 123.5 103.111 123.5H42.4444V42.5ZM42.4444 164C31.7179 164 21.4307 168.267 13.8459 175.862C6.26109 183.457 2 193.759 2 204.5M42.4444 164H123.333C139.423 164 154.854 155.466 166.231 140.276C177.608 125.085 184 104.483 184 83C184 61.5175 177.608 40.9148 166.231 25.7244C154.854 10.5339 139.423 2 123.333 2H2V204.5M2 204.5C2 215.241 6.26109 225.543 13.8459 233.138C21.4307 240.733 31.7179 245 42.4444 245V184.25"/></svg>